<?xml version="1.0" encoding="utf-8" standalone="no"?>
<!DOCTYPE svg PUBLIC "-//W3C//DTD SVG 1.1//EN"
  "http://www.w3.org/Graphics/SVG/1.1/DTD/svg11.dtd">
<svg xmlns:xlink="http://www.w3.org/1999/xlink" width="604.8pt" height="604.8pt" viewBox="0 0 604.8 604.8" xmlns="http://www.w3.org/2000/svg" version="1.1">
 <metadata>
  <rdf:RDF xmlns:dc="http://purl.org/dc/elements/1.1/" xmlns:cc="http://creativecommons.org/ns#" xmlns:rdf="http://www.w3.org/1999/02/22-rdf-syntax-ns#">
   <cc:Work>
    <dc:type rdf:resource="http://purl.org/dc/dcmitype/StillImage"/>
    <dc:date>2026-09-02T16:46:33.611785</dc:date>
    <dc:format>image/svg+xml</dc:format>
    <dc:creator>
     <cc:Agent>
      <dc:title>Matplotlib v3.10.9, https://matplotlib.org/</dc:title>
     </cc:Agent>
    </dc:creator>
   </cc:Work>
  </rdf:RDF>
 </metadata>
 <defs>
  <style type="text/css">*{stroke-linejoin: round; stroke-linecap: butt}</style>
 </defs>
 <g id="figure_1">
  <g id="patch_1">
   <path d="M 0 604.8 
L 604.8 604.8 
L 604.8 0 
L 0 0 
z
" style="fill: #ffffff"/>
  </g>
  <g id="axes_1">
   <g id="patch_2">
    <path d="M 302.4 238.298904 
C 279.850074 238.298904 258.200667 247.266382 242.255461 263.211588 
C 226.310255 279.156794 217.342777 300.806201 217.342777 323.356127 
L 259.871389 323.356127 
C 259.871389 312.081164 264.355128 301.256461 272.32773 293.283858 
C 280.300333 285.311255 291.125037 280.827516 302.4 280.827516 
z
" clip-path="url(#p1fabd1aa7c)" style="fill: #2aa3d4; stroke: #ffffff; stroke-width: 1.1; stroke-linejoin: miter"/>
   </g>
   <g id="patch_3">
    <path d="M 302.4 199.314344 
C 269.514691 199.314344 237.942639 212.391916 214.689214 235.645341 
C 191.435789 258.898766 178.358217 290.470818 178.358217 323.356127 
L 217.342777 323.356127 
C 217.342777 300.806201 226.310255 279.156794 242.255461 263.211588 
C 258.200667 247.266382 279.850074 238.298904 302.4 238.298904 
z
" clip-path="url(#p1fabd1aa7c)" style="fill: #54bde8; stroke: #ffffff; stroke-width: 1.1; stroke-linejoin: miter"/>
   </g>
   <g id="patch_4">
    <path d="M 134.865283 246.576169 
C 129.360906 258.58678 125.164019 271.154559 122.347056 284.062606 
C 119.530092 296.970652 118.10935 310.144279 118.10935 323.356127 
L 178.358217 323.356127 
C 178.358217 314.463537 179.314485 305.596673 181.210518 296.908565 
C 183.106552 288.220457 185.931379 279.761374 189.636248 271.677309 
z
" clip-path="url(#p1fabd1aa7c)" style="fill: #b3e4f6; stroke: #ffffff; stroke-width: 0.8; stroke-linejoin: miter"/>
   </g>
   <g id="patch_5">
    <path d="M 173.949284 191.206753 
C 165.797329 199.130548 158.39603 207.791682 151.840088 217.079336 
C 145.284145 226.36699 139.601641 236.241383 134.865283 246.576169 
L 189.636248 271.677309 
C 192.824181 264.721203 196.648944 258.074977 201.061597 251.823672 
C 205.474251 245.572366 210.455894 239.742756 215.942787 234.409433 
z
" clip-path="url(#p1fabd1aa7c)" style="fill: #a2def4; stroke: #ffffff; stroke-width: 0.8; stroke-linejoin: miter"/>
   </g>
   <g id="patch_6">
    <path d="M 204.927631 166.952224 
C 199.350617 170.427872 193.963492 174.199329 188.789347 178.250431 
C 183.615201 182.301534 178.661436 186.626487 173.949284 191.206753 
L 215.942787 234.409433 
C 219.114428 231.326562 222.448693 228.415536 225.931291 225.688832 
C 229.413889 222.962128 233.039838 220.423648 236.793598 218.08427 
z
" clip-path="url(#p1fabd1aa7c)" style="fill: #91d8f2; stroke: #ffffff; stroke-width: 0.8; stroke-linejoin: miter"/>
   </g>
   <g id="patch_7">
    <path d="M 239.139667 150.263164 
C 233.168913 152.445297 227.315064 154.934907 221.601599 157.722006 
C 215.888135 160.509106 210.322704 163.589965 204.927631 166.952224 
L 236.793598 218.08427 
C 240.424897 215.82121 244.17086 213.747555 248.016461 211.871623 
C 251.862062 209.99569 255.802153 208.319992 259.82093 206.851248 
z
" clip-path="url(#p1fabd1aa7c)" style="fill: #b3e4f6; stroke: #ffffff; stroke-width: 0.8; stroke-linejoin: miter"/>
   </g>
   <g id="patch_8">
    <path d="M 258.966028 144.256899 
C 255.608604 145.07112 252.274738 145.979587 248.968385 146.981225 
C 245.662031 147.982863 242.384497 149.077276 239.139667 150.263164 
L 259.82093 206.851248 
C 262.00495 206.053054 264.210983 205.31643 266.436413 204.642251 
C 268.661843 203.968072 270.905791 203.356603 273.165596 202.80857 
z
" clip-path="url(#p1fabd1aa7c)" style="fill: #a2def4; stroke: #ffffff; stroke-width: 0.8; stroke-linejoin: miter"/>
   </g>
   <g id="patch_9">
    <path d="M 278.296569 140.648524 
C 275.045579 141.077407 271.806614 141.592982 268.583136 142.194699 
C 265.359657 142.796416 262.152813 143.484061 258.966028 144.256899 
L 273.165596 202.80857 
C 275.310547 202.28839 277.469 201.825552 279.638649 201.42055 
C 281.808298 201.015548 283.98837 200.668527 286.176537 200.379856 
z
" clip-path="url(#p1fabd1aa7c)" style="fill: #91d8f2; stroke: #ffffff; stroke-width: 0.8; stroke-linejoin: miter"/>
   </g>
   <g id="patch_10">
    <path d="M 288.488067 139.591328 
C 286.784995 139.720259 285.083798 139.872859 283.384969 140.049084 
C 281.68614 140.225309 279.989843 140.425142 278.296569 140.648524 
L 286.176537 200.379856 
C 287.31624 200.229502 288.457979 200.095 289.601422 199.976387 
C 290.744864 199.857774 291.889901 199.755062 293.036199 199.668281 
z
" clip-path="url(#p1fabd1aa7c)" style="fill: #b3e4f6; stroke: #ffffff; stroke-width: 0.8; stroke-linejoin: miter"/>
   </g>
   <g id="patch_11">
    <path d="M 298.669021 139.103249 
C 296.970351 139.137645 295.272238 139.195531 293.575169 139.276889 
C 291.8781 139.358247 290.182237 139.46307 288.488067 139.591328 
L 293.036199 199.668281 
C 294.176506 199.581954 295.317952 199.5114 296.46021 199.45664 
C 297.602468 199.40188 298.745428 199.362918 299.888764 199.339767 
z
" clip-path="url(#p1fabd1aa7c)" style="fill: #a2def4; stroke: #ffffff; stroke-width: 0.8; stroke-linejoin: miter"/>
   </g>
   <g id="patch_12">
    <path d="M 302.4 139.065478 
C 301.778126 139.065478 301.156257 139.068625 300.534415 139.074921 
C 299.912573 139.081216 299.290767 139.090659 298.669021 139.103249 
L 299.888764 199.339767 
C 300.307247 199.331293 300.72577 199.324937 301.144318 199.3207 
C 301.562865 199.316463 301.981431 199.314344 302.4 199.314344 
z
" clip-path="url(#p1fabd1aa7c)" style="fill: #91d8f2; stroke: #ffffff; stroke-width: 0.8; stroke-linejoin: miter"/>
   </g>
   <g id="patch_13">
    <path d="M 387.457223 323.356127 
C 387.457223 300.806201 378.489745 279.156794 362.544539 263.211588 
C 346.599333 247.266382 324.949926 238.298904 302.4 238.298904 
L 302.4 280.827516 
C 313.674963 280.827516 324.499667 285.311255 332.47227 293.283858 
C 340.444872 301.256461 344.928611 312.081164 344.928611 323.356127 
z
" clip-path="url(#p1fabd1aa7c)" style="fill: #2eaa4e; stroke: #ffffff; stroke-width: 1.1; stroke-linejoin: miter"/>
   </g>
   <g id="patch_14">
    <path d="M 361.732367 214.424799 
C 352.665788 209.486444 343.018029 205.699296 333.013133 203.151302 
C 323.008237 200.603307 312.724254 199.314344 302.4 199.314344 
L 302.4 238.298904 
C 309.479488 238.298904 316.531363 239.182765 323.391863 240.929961 
C 330.252363 242.677157 336.867969 245.274059 343.085052 248.660359 
z
" clip-path="url(#p1fabd1aa7c)" style="fill: #7bd392; stroke: #ffffff; stroke-linejoin: miter"/>
   </g>
   <g id="patch_15">
    <path d="M 361.058466 148.650009 
C 351.621265 145.481421 341.94282 143.082697 332.118172 141.477394 
C 322.293523 139.87209 312.354935 139.065478 302.4 139.065478 
L 302.4 199.314344 
C 309.100437 199.314344 315.789871 199.857256 322.402616 200.937749 
C 329.01536 202.018242 335.529698 203.632767 341.88166 205.765471 
z
" clip-path="url(#p1fabd1aa7c)" style="fill: #abe8bb; stroke: #ffffff; stroke-width: 0.8; stroke-linejoin: miter"/>
   </g>
   <g id="patch_16">
    <path d="M 390.550945 161.515297 
C 385.834731 158.946484 381.008483 156.585052 376.086021 154.437763 
C 371.16356 152.290474 366.149589 150.359379 361.058466 148.650009 
L 341.88166 205.765471 
C 345.308377 206.916008 348.683165 208.215784 351.996361 209.661074 
C 355.309556 211.106365 358.557992 212.695791 361.732367 214.424799 
z
" clip-path="url(#p1fabd1aa7c)" style="fill: #98e3ab; stroke: #ffffff; stroke-width: 0.8; stroke-linejoin: miter"/>
   </g>
   <g id="patch_17">
    <path d="M 383.695802 229.668579 
C 380.322975 226.741865 376.794562 223.999422 373.125976 221.453231 
C 369.45739 218.907039 365.653982 216.560812 361.732367 214.424799 
L 343.085052 248.660359 
C 345.774159 250.125054 348.38221 251.733895 350.897812 253.479855 
C 353.413414 255.225815 355.832897 257.106348 358.145693 259.113237 
z
" clip-path="url(#p1fabd1aa7c)" style="fill: #62cb7d; stroke: #ffffff; stroke-linejoin: miter"/>
   </g>
   <g id="patch_18">
    <path d="M 423.182334 184.163199 
C 418.171277 179.814938 412.929063 175.740451 407.478593 171.957538 
C 402.028123 168.174625 396.377345 164.688801 390.550945 161.515297 
L 361.732367 214.424799 
C 365.653982 216.560812 369.45739 218.907039 373.125976 221.453231 
C 376.794562 223.999422 380.322975 226.741865 383.695802 229.668579 
z
" clip-path="url(#p1fabd1aa7c)" style="fill: #abe8bb; stroke: #ffffff; stroke-width: 0.8; stroke-linejoin: miter"/>
   </g>
   <g id="patch_19">
    <path d="M 399.351361 245.981728 
C 396.997079 243.031776 394.509386 240.190811 391.896047 237.467702 
C 389.282708 234.744594 386.546446 232.142178 383.695802 229.668579 
L 358.145693 259.113237 
C 360.10042 260.809419 361.976714 262.593933 363.768718 264.461207 
C 365.560722 266.328482 367.266569 268.276572 368.880933 270.299397 
z
" clip-path="url(#p1fabd1aa7c)" style="fill: #7bd392; stroke: #ffffff; stroke-linejoin: miter"/>
   </g>
   <g id="patch_20">
    <path d="M 434.542674 194.898519 
C 432.726249 193.029986 430.870396 191.20019 428.976367 189.410367 
C 427.082338 187.620543 425.150559 185.871093 423.182334 184.163199 
L 383.695802 229.668579 
C 385.020569 230.818124 386.320805 231.995638 387.595632 233.200327 
C 388.870459 234.405016 390.119591 235.636609 391.342184 236.894275 
z
" clip-path="url(#p1fabd1aa7c)" style="fill: #abe8bb; stroke: #ffffff; stroke-width: 0.8; stroke-linejoin: miter"/>
   </g>
   <g id="patch_21">
    <path d="M 440.970062 201.859702 
C 439.928879 200.672204 438.872475 199.498139 437.801111 198.337798 
C 436.729747 197.177457 435.643512 196.030936 434.542674 194.898519 
L 391.342184 236.894275 
C 392.083133 237.656479 392.814253 238.428176 393.535363 239.209175 
C 394.256474 239.990174 394.967515 240.78041 395.668311 241.579687 
z
" clip-path="url(#p1fabd1aa7c)" style="fill: #98e3ab; stroke: #ffffff; stroke-width: 0.8; stroke-linejoin: miter"/>
   </g>
   <g id="patch_22">
    <path d="M 445.25228 206.924733 
C 444.553841 206.067803 443.847706 205.217174 443.133959 204.372951 
C 442.420213 203.528728 441.698885 202.690944 440.970062 201.859702 
L 395.668311 241.579687 
C 396.158865 242.139177 396.644374 242.70307 397.12478 243.271297 
C 397.605187 243.839524 398.08047 244.412063 398.550573 244.988843 
z
" clip-path="url(#p1fabd1aa7c)" style="fill: #85de9c; stroke: #ffffff; stroke-width: 0.8; stroke-linejoin: miter"/>
   </g>
   <g id="patch_23">
    <path d="M 446.442022 208.399877 
C 446.244998 208.153002 446.047339 207.906634 445.849047 207.660776 
C 445.650756 207.414917 445.451833 207.169569 445.25228 206.924733 
L 398.550573 244.988843 
C 398.684888 245.153636 398.818778 245.318774 398.952243 245.484256 
C 399.085709 245.649738 399.218748 245.815562 399.351361 245.981728 
z
" clip-path="url(#p1fabd1aa7c)" style="fill: #abe8bb; stroke: #ffffff; stroke-width: 0.8; stroke-linejoin: miter"/>
   </g>
   <g id="patch_24">
    <path d="M 409.929476 261.51944 
C 408.366049 258.800755 406.700078 256.142339 404.935156 253.549926 
C 403.170235 250.957513 401.307631 248.432966 399.351361 245.981728 
L 368.880933 270.299397 
C 370.222375 271.980245 371.499589 273.711363 372.709821 275.489018 
C 373.920054 277.266673 375.062433 279.089586 376.134498 280.953828 
z
" clip-path="url(#p1fabd1aa7c)" style="fill: #62cb7d; stroke: #ffffff; stroke-linejoin: miter"/>
   </g>
   <g id="patch_25">
    <path d="M 462.158078 231.484478 
C 459.835272 227.445288 457.360116 223.495642 454.737947 219.644057 
C 452.115777 215.792471 449.34848 212.041716 446.442022 208.399877 
L 399.351361 245.981728 
C 401.307631 248.432966 403.170235 250.957513 404.935156 253.549926 
C 406.700078 256.142339 408.366049 258.800755 409.929476 261.51944 
z
" clip-path="url(#p1fabd1aa7c)" style="fill: #abe8bb; stroke: #ffffff; stroke-width: 0.8; stroke-linejoin: miter"/>
   </g>
   <g id="patch_26">
    <path d="M 417.806109 277.883123 
C 416.695389 275.064224 415.481761 272.286965 414.167666 269.556938 
C 412.853572 266.82691 411.439893 264.145946 409.929476 261.51944 
L 376.134498 280.953828 
C 377.170213 282.75486 378.139592 284.593236 379.040686 286.465255 
C 379.941779 288.337273 380.773981 290.241679 381.535617 292.174639 
z
" clip-path="url(#p1fabd1aa7c)" style="fill: #7bd392; stroke: #ffffff; stroke-linejoin: miter"/>
   </g>
   <g id="patch_27">
    <path d="M 472.434843 252.284363 
C 470.942542 248.714124 469.338164 245.191771 467.624095 241.722544 
C 465.910026 238.253316 464.087117 234.838935 462.158078 231.484478 
L 409.929476 261.51944 
C 411.227867 263.777248 412.454825 266.075389 413.608525 268.410446 
C 414.762226 270.745503 415.842096 273.116317 416.846529 275.519363 
z
" clip-path="url(#p1fabd1aa7c)" style="fill: #abe8bb; stroke: #ffffff; stroke-width: 0.8; stroke-linejoin: miter"/>
   </g>
   <g id="patch_28">
    <path d="M 473.860504 255.796236 
C 473.628921 255.208499 473.394317 254.621958 473.156702 254.036634 
C 472.919087 253.45131 472.678464 252.867212 472.434843 252.284363 
L 416.846529 275.519363 
C 417.010505 275.911665 417.172463 276.304808 417.332396 276.698776 
C 417.492329 277.092744 417.650235 277.487532 417.806109 277.883123 
z
" clip-path="url(#p1fabd1aa7c)" style="fill: #98e3ab; stroke: #ffffff; stroke-width: 0.8; stroke-linejoin: miter"/>
   </g>
   <g id="patch_29">
    <path d="M 422.988395 294.290631 
C 422.315817 291.500206 421.546586 288.733968 420.682091 285.996911 
C 419.817596 283.259855 418.858357 280.553629 417.806109 277.883123 
L 381.535617 292.174639 
C 382.257159 294.005843 382.914923 295.86154 383.507719 297.738379 
C 384.100516 299.615218 384.627989 301.512067 385.089185 303.425501 
z
" clip-path="url(#p1fabd1aa7c)" style="fill: #62cb7d; stroke: #ffffff; stroke-linejoin: miter"/>
   </g>
   <g id="patch_30">
    <path d="M 481.559901 280.173104 
C 480.560642 276.02733 479.417785 271.91749 478.133392 267.851006 
C 476.848999 263.784522 475.423845 259.763845 473.860504 255.796236 
L 417.806109 277.883123 
C 418.858357 280.553629 419.817596 283.259855 420.682091 285.996911 
C 421.546586 288.733968 422.315817 291.500206 422.988395 294.290631 
z
" clip-path="url(#p1fabd1aa7c)" style="fill: #abe8bb; stroke: #ffffff; stroke-width: 0.8; stroke-linejoin: miter"/>
   </g>
   <g id="patch_31">
    <path d="M 424.969008 304.298259 
C 424.707691 302.617625 424.411836 300.942542 424.081629 299.274075 
C 423.751422 297.605607 423.386933 295.944108 422.988395 294.290631 
L 385.089185 303.425501 
C 385.362469 304.559314 385.612404 305.698628 385.838831 306.84272 
C 386.065259 307.986812 386.268131 309.13544 386.44732 310.287875 
z
" clip-path="url(#p1fabd1aa7c)" style="fill: #7bd392; stroke: #ffffff; stroke-linejoin: miter"/>
   </g>
   <g id="patch_32">
    <path d="M 484.502526 295.041581 
C 484.114284 292.544637 483.674727 290.055943 483.184134 287.577078 
C 482.693541 285.098212 482.152015 282.629699 481.559901 280.173104 
L 422.988395 294.290631 
C 423.386933 295.944108 423.751422 297.605607 424.081629 299.274075 
C 424.411836 300.942542 424.707691 302.617625 424.969008 304.298259 
z
" clip-path="url(#p1fabd1aa7c)" style="fill: #abe8bb; stroke: #ffffff; stroke-width: 0.8; stroke-linejoin: miter"/>
   </g>
   <g id="patch_33">
    <path d="M 426.022266 313.163019 
C 425.899972 311.679839 425.750996 310.19898 425.575411 308.721161 
C 425.399825 307.243342 425.197658 305.768803 424.969008 304.298259 
L 386.44732 310.287875 
C 386.604108 311.296248 386.742737 312.30736 386.863139 313.320722 
C 386.98354 314.334083 387.085695 315.349529 387.169554 316.366567 
z
" clip-path="url(#p1fabd1aa7c)" style="fill: #62cb7d; stroke: #ffffff; stroke-linejoin: miter"/>
   </g>
   <g id="patch_34">
    <path d="M 485.512846 302.553985 
C 485.370233 301.29862 485.214714 300.044754 485.046314 298.792588 
C 484.877914 297.540421 484.696642 296.290019 484.502526 295.041581 
L 424.969008 304.298259 
C 425.099663 305.138555 425.221673 305.980171 425.335019 306.822976 
C 425.448365 307.66578 425.553042 308.509728 425.649031 309.354685 
z
" clip-path="url(#p1fabd1aa7c)" style="fill: #abe8bb; stroke: #ffffff; stroke-width: 0.8; stroke-linejoin: miter"/>
   </g>
   <g id="patch_35">
    <path d="M 486.067366 308.21208 
C 485.989499 307.267709 485.90435 306.323952 485.811926 305.380894 
C 485.719502 304.437836 485.619806 303.495505 485.512846 302.553985 
L 425.649031 309.354685 
C 425.721023 309.988401 425.788126 310.622662 425.850335 311.257413 
C 425.912543 311.892163 425.969855 312.527384 426.022266 313.163019 
z
" clip-path="url(#p1fabd1aa7c)" style="fill: #98e3ab; stroke: #ffffff; stroke-width: 0.8; stroke-linejoin: miter"/>
   </g>
   <g id="patch_36">
    <path d="M 426.41555 320.805153 
C 426.389316 319.529821 426.343412 318.254969 426.277853 316.981053 
C 426.212294 315.707136 426.127088 314.434307 426.022266 313.163019 
L 387.169554 316.366567 
C 387.241432 317.238308 387.299859 318.111105 387.344813 318.984647 
C 387.389768 319.85819 387.421246 320.732374 387.439234 321.606888 
z
" clip-path="url(#p1fabd1aa7c)" style="fill: #7bd392; stroke: #ffffff; stroke-linejoin: miter"/>
   </g>
   <g id="patch_37">
    <path d="M 486.651674 319.566109 
C 486.612699 317.671329 486.544498 315.777263 486.447096 313.884588 
C 486.349694 311.991912 486.223102 310.100851 486.067366 308.21208 
L 426.022266 313.163019 
C 426.127088 314.434307 426.212294 315.707136 426.277853 316.981053 
C 426.343412 318.254969 426.389316 319.529821 426.41555 320.805153 
z
" clip-path="url(#p1fabd1aa7c)" style="fill: #abe8bb; stroke: #ffffff; stroke-width: 0.8; stroke-linejoin: miter"/>
   </g>
   <g id="patch_38">
    <path d="M 426.441783 323.356127 
C 426.441783 322.930934 426.439597 322.505744 426.435225 322.080573 
C 426.430852 321.655402 426.424294 321.230257 426.41555 320.805153 
L 387.439234 321.606888 
C 387.44523 321.898387 387.449727 322.189916 387.452726 322.481461 
C 387.455724 322.773007 387.457223 323.064566 387.457223 323.356127 
z
" clip-path="url(#p1fabd1aa7c)" style="fill: #62cb7d; stroke: #ffffff; stroke-linejoin: miter"/>
   </g>
   <g id="patch_39">
    <path d="M 486.685169 321.934784 
C 486.682123 321.539974 486.67781 321.145175 486.672227 320.750393 
C 486.666645 320.35561 486.659794 319.960847 486.651674 319.566109 
L 426.41555 320.805153 
C 426.421015 321.070843 426.425626 321.336549 426.429384 321.602268 
C 426.433141 321.867986 426.436045 322.133717 426.438094 322.399454 
z
" clip-path="url(#p1fabd1aa7c)" style="fill: #abe8bb; stroke: #ffffff; stroke-width: 0.8; stroke-linejoin: miter"/>
   </g>
   <g id="patch_40">
    <path d="M 486.69065 323.356127 
C 486.69065 323.119234 486.690193 322.882342 486.689279 322.645451 
C 486.688366 322.408559 486.686996 322.17167 486.685169 321.934784 
L 426.438094 322.399454 
C 426.439324 322.558897 426.440246 322.718341 426.440861 322.877787 
C 426.441476 323.037233 426.441783 323.19668 426.441783 323.356127 
z
" clip-path="url(#p1fabd1aa7c)" style="fill: #98e3ab; stroke: #ffffff; stroke-width: 0.8; stroke-linejoin: miter"/>
   </g>
   <g id="patch_41">
    <path d="M 302.4 408.41335 
C 324.949926 408.41335 346.599333 399.445872 362.544539 383.500667 
C 378.489745 367.555461 387.457223 345.906054 387.457223 323.356127 
L 344.928611 323.356127 
C 344.928611 334.631091 340.444872 345.455794 332.47227 353.428397 
C 324.499667 361.401 313.674963 365.884739 302.4 365.884739 
z
" clip-path="url(#p1fabd1aa7c)" style="fill: #e07a42; stroke: #ffffff; stroke-width: 1.1; stroke-linejoin: miter"/>
   </g>
   <g id="patch_42">
    <path d="M 302.4 447.397911 
C 335.285309 447.397911 366.857361 434.320339 390.110786 411.066914 
C 413.364211 387.813488 426.441783 356.241437 426.441783 323.356127 
L 387.457223 323.356127 
C 387.457223 345.906054 378.489745 367.555461 362.544539 383.500667 
C 346.599333 399.445872 324.949926 408.41335 302.4 408.41335 
z
" clip-path="url(#p1fabd1aa7c)" style="fill: #ef9a67; stroke: #ffffff; stroke-width: 1.1; stroke-linejoin: miter"/>
   </g>
   <g id="patch_43">
    <path d="M 302.4 507.646777 
C 351.258174 507.646777 398.165222 488.217242 432.713168 453.669295 
C 467.261114 419.121349 486.69065 372.214301 486.69065 323.356127 
L 426.441783 323.356127 
C 426.441783 356.241437 413.364211 387.813488 390.110786 411.066914 
C 366.857361 434.320339 335.285309 447.397911 302.4 447.397911 
z
" clip-path="url(#p1fabd1aa7c)" style="fill: #fad9c3; stroke: #ffffff; stroke-width: 0.8; stroke-linejoin: miter"/>
   </g>
   <g id="patch_44">
    <path d="M 217.342777 323.356127 
C 217.342777 345.906054 226.310255 367.555461 242.255461 383.500667 
C 258.200667 399.445872 279.850074 408.41335 302.4 408.41335 
L 302.4 365.884739 
C 291.125037 365.884739 280.300333 361.401 272.32773 353.428397 
C 264.355128 345.455794 259.871389 334.631091 259.871389 323.356127 
z
" clip-path="url(#p1fabd1aa7c)" style="fill: #2b7fa8; stroke: #ffffff; stroke-width: 1.1; stroke-linejoin: miter"/>
   </g>
   <g id="patch_45">
    <path d="M 186.689855 368.049821 
C 195.711791 391.407246 211.598186 411.494423 232.248455 425.65532 
C 252.898724 439.816216 277.360739 447.397911 302.4 447.397911 
L 302.4 408.41335 
C 285.230221 408.41335 268.456268 403.214474 254.296083 393.504145 
C 240.135899 383.793816 229.242371 370.019751 223.0559 354.003232 
z
" clip-path="url(#p1fabd1aa7c)" style="fill: #76b5d3; stroke: #ffffff; stroke-linejoin: miter"/>
   </g>
   <g id="patch_46">
    <path d="M 203.025873 478.558661 
C 217.782451 488.007103 233.811426 495.302865 250.628059 500.225315 
C 267.444692 505.147765 284.877738 507.646777 302.4 507.646777 
L 302.4 447.397911 
C 290.60617 447.397911 278.872389 445.715884 267.553501 442.402696 
C 256.234614 439.089509 245.445881 434.178899 235.513568 427.819371 
z
" clip-path="url(#p1fabd1aa7c)" style="fill: #a7d3e8; stroke: #ffffff; stroke-width: 0.8; stroke-linejoin: miter"/>
   </g>
   <g id="patch_47">
    <path d="M 140.325236 411.076219 
C 147.720968 424.740837 156.815207 437.415455 167.391294 448.798118 
C 177.967381 460.18078 189.940657 470.180371 203.025873 478.558661 
L 235.513568 427.819371 
C 226.706212 422.180137 218.647276 415.449644 211.528756 407.788236 
C 204.410236 400.126829 198.289113 391.595835 193.311217 382.398497 
z
" clip-path="url(#p1fabd1aa7c)" style="fill: #93c9e3; stroke: #ffffff; stroke-width: 0.8; stroke-linejoin: miter"/>
   </g>
   <g id="patch_48">
    <path d="M 130.487784 389.758187 
C 131.89878 393.411199 133.425854 397.018309 135.066679 400.574022 
C 136.707504 404.129735 138.461247 407.632246 140.325236 411.076219 
L 193.311217 382.398497 
C 192.056608 380.080438 190.876205 377.722979 189.771803 375.32971 
C 188.667402 372.936442 187.639564 370.508579 186.689855 368.049821 
z
" clip-path="url(#p1fabd1aa7c)" style="fill: #7fbfde; stroke: #ffffff; stroke-width: 0.8; stroke-linejoin: miter"/>
   </g>
   <g id="patch_49">
    <path d="M 179.092811 336.835781 
C 179.676497 342.175143 180.60637 347.470961 181.876555 352.689783 
C 183.146741 357.908606 184.754559 363.039421 186.689855 368.049821 
L 223.0559 354.003232 
C 221.728841 350.567529 220.626337 347.049255 219.755352 343.470634 
C 218.884368 339.892013 218.246741 336.260595 217.846499 332.599318 
z
" clip-path="url(#p1fabd1aa7c)" style="fill: #5ca6cb; stroke: #ffffff; stroke-linejoin: miter"/>
   </g>
   <g id="patch_50">
    <path d="M 124.103376 369.97541 
C 124.98032 373.329305 125.951724 376.657789 127.016428 379.956888 
C 128.081131 383.255987 129.238711 386.524387 130.487784 389.758187 
L 186.689855 368.049821 
C 185.849132 365.873225 185.069992 363.673341 184.353365 361.452793 
C 183.636737 359.232246 182.982908 356.99192 182.392657 354.734491 
z
" clip-path="url(#p1fabd1aa7c)" style="fill: #a7d3e8; stroke: #ffffff; stroke-width: 0.8; stroke-linejoin: miter"/>
   </g>
   <g id="patch_51">
    <path d="M 120.931919 355.486786 
C 121.363028 357.92161 121.843097 360.347512 122.371834 362.763016 
C 122.90057 365.17852 123.477868 367.583138 124.103376 369.97541 
L 182.392657 354.734491 
C 181.971642 353.124308 181.583076 351.505815 181.227196 349.879995 
C 180.871315 348.254174 180.548192 346.621356 180.258023 344.982532 
z
" clip-path="url(#p1fabd1aa7c)" style="fill: #93c9e3; stroke: #ffffff; stroke-width: 0.8; stroke-linejoin: miter"/>
   </g>
   <g id="patch_52">
    <path d="M 119.200747 343.383041 
C 119.422243 345.409211 119.677338 347.431567 119.965926 349.449275 
C 120.254515 351.466982 120.576557 353.479763 120.931919 355.486786 
L 180.258023 344.982532 
C 180.018836 343.631651 179.802077 342.276895 179.607835 340.918823 
C 179.413593 339.560751 179.241894 338.199549 179.092811 336.835781 
z
" clip-path="url(#p1fabd1aa7c)" style="fill: #7fbfde; stroke: #ffffff; stroke-width: 0.8; stroke-linejoin: miter"/>
   </g>
   <g id="patch_53">
    <path d="M 178.366321 324.77402 
C 178.389352 326.788722 178.461467 328.802564 178.582603 330.813752 
C 178.703738 332.824941 178.873858 334.83288 179.092811 336.835781 
L 217.846499 332.599318 
C 217.69636 331.2259 217.579706 329.849028 217.496642 328.469927 
C 217.413577 327.090827 217.364127 325.709907 217.348334 324.328397 
z
" clip-path="url(#p1fabd1aa7c)" style="fill: #76b5d3; stroke: #ffffff; stroke-linejoin: miter"/>
   </g>
   <g id="patch_54">
    <path d="M 118.121391 325.462711 
C 118.155608 328.455983 118.262751 331.447976 118.442724 334.436027 
C 118.622697 337.424079 118.875446 340.407302 119.200747 343.383041 
L 179.092811 336.835781 
C 178.873858 334.83288 178.703738 332.824941 178.582603 330.813752 
C 178.461467 328.802564 178.389352 326.788722 178.366321 324.77402 
z
" clip-path="url(#p1fabd1aa7c)" style="fill: #a7d3e8; stroke: #ffffff; stroke-width: 0.8; stroke-linejoin: miter"/>
   </g>
   <g id="patch_55">
    <path d="M 178.358217 323.356127 
C 178.358217 323.592448 178.358892 323.828769 178.360243 324.065085 
C 178.361593 324.301402 178.363619 324.537715 178.366321 324.77402 
L 217.348334 324.328397 
C 217.346482 324.166359 217.345093 324.004316 217.344166 323.84227 
C 217.34324 323.680224 217.342777 323.518176 217.342777 323.356127 
z
" clip-path="url(#p1fabd1aa7c)" style="fill: #5ca6cb; stroke: #ffffff; stroke-linejoin: miter"/>
   </g>
   <g id="patch_56">
    <path d="M 118.112062 324.355879 
C 118.113063 324.540355 118.114341 324.72483 118.115895 324.909302 
C 118.11745 325.093775 118.119282 325.278244 118.121391 325.462711 
L 178.366321 324.77402 
C 178.364901 324.64986 178.363668 324.525698 178.362622 324.401534 
C 178.361575 324.277369 178.360715 324.153204 178.360042 324.029037 
z
" clip-path="url(#p1fabd1aa7c)" style="fill: #a7d3e8; stroke: #ffffff; stroke-width: 0.8; stroke-linejoin: miter"/>
   </g>
   <g id="patch_57">
    <path d="M 118.110028 323.856005 
C 118.110254 323.939318 118.110537 324.02263 118.110876 324.105943 
C 118.111215 324.189255 118.11161 324.272567 118.112062 324.355879 
L 178.360042 324.029037 
C 178.359738 323.972962 178.359471 323.916886 178.359243 323.860811 
C 178.359015 323.804735 178.358825 323.748659 178.358673 323.692584 
z
" clip-path="url(#p1fabd1aa7c)" style="fill: #93c9e3; stroke: #ffffff; stroke-width: 0.8; stroke-linejoin: miter"/>
   </g>
   <g id="patch_58">
    <path d="M 118.10935 323.356127 
C 118.10935 323.43944 118.109407 323.522753 118.10952 323.606066 
C 118.109633 323.689379 118.109802 323.772692 118.110028 323.856005 
L 178.358673 323.692584 
C 178.358521 323.636508 178.358407 323.580432 178.358331 323.524356 
C 178.358255 323.46828 178.358217 323.412203 178.358217 323.356127 
z
" clip-path="url(#p1fabd1aa7c)" style="fill: #7fbfde; stroke: #ffffff; stroke-width: 0.8; stroke-linejoin: miter"/>
   </g>
   <g id="line2d_1">
    <path d="M 486.689279 322.645451 
L 495.549341 322.611283 
L 515.041621 322.611283 
" clip-path="url(#p1fabd1aa7c)" style="fill: none; stroke: #646464; stroke-width: 0.45; stroke-linecap: square"/>
   </g>
   <g id="line2d_2">
    <path d="M 486.680905 321.461018 
L 495.540564 309.321092 
L 515.032845 309.321092 
" clip-path="url(#p1fabd1aa7c)" style="fill: none; stroke: #646464; stroke-width: 0.45; stroke-linecap: square"/>
   </g>
   <g id="line2d_3">
    <path d="M 486.672227 320.750393 
L 495.531469 296.030901 
L 515.023749 296.030901 
" clip-path="url(#p1fabd1aa7c)" style="fill: none; stroke: #646464; stroke-width: 0.45; stroke-linecap: square"/>
   </g>
   <g id="line2d_4">
    <path d="M 485.811926 305.380894 
L 494.629807 282.74071 
L 514.122087 282.74071 
" clip-path="url(#p1fabd1aa7c)" style="fill: none; stroke: #646464; stroke-width: 0.45; stroke-linecap: square"/>
   </g>
   <g id="line2d_5">
    <path d="M 485.046314 298.792588 
L 493.827387 269.450519 
L 513.319667 269.450519 
" clip-path="url(#p1fabd1aa7c)" style="fill: none; stroke: #646464; stroke-width: 0.45; stroke-linecap: square"/>
   </g>
   <g id="line2d_6">
    <path d="M 473.156702 254.036634 
L 481.366159 250.703966 
L 500.858439 250.703966 
" clip-path="url(#p1fabd1aa7c)" style="fill: none; stroke: #646464; stroke-width: 0.45; stroke-linecap: square"/>
   </g>
   <g id="line2d_7">
    <path d="M 445.849047 207.660776 
L 452.745636 202.098499 
L 472.237917 202.098499 
" clip-path="url(#p1fabd1aa7c)" style="fill: none; stroke: #646464; stroke-width: 0.45; stroke-linecap: square"/>
   </g>
   <g id="line2d_8">
    <path d="M 443.133959 204.372951 
L 449.900015 188.808308 
L 469.392295 188.808308 
" clip-path="url(#p1fabd1aa7c)" style="fill: none; stroke: #646464; stroke-width: 0.45; stroke-linecap: square"/>
   </g>
   <g id="line2d_9">
    <path d="M 118.115895 324.909302 
L 109.256083 324.983974 
L 89.763802 324.983974 
" clip-path="url(#p1fabd1aa7c)" style="fill: none; stroke: #646464; stroke-width: 0.45; stroke-linecap: square"/>
   </g>
   <g id="line2d_10">
    <path d="M 118.11236 324.409437 
L 109.252378 311.693783 
L 89.760097 311.693783 
" clip-path="url(#p1fabd1aa7c)" style="fill: none; stroke: #646464; stroke-width: 0.45; stroke-linecap: square"/>
   </g>
   <g id="line2d_11">
    <path d="M 118.110876 324.105943 
L 109.250822 298.403592 
L 89.758541 298.403592 
" clip-path="url(#p1fabd1aa7c)" style="fill: none; stroke: #646464; stroke-width: 0.45; stroke-linecap: square"/>
   </g>
   <g id="line2d_12">
    <path d="M 118.10952 323.606066 
L 109.249401 285.113401 
L 89.75712 285.113401 
" clip-path="url(#p1fabd1aa7c)" style="fill: none; stroke: #646464; stroke-width: 0.45; stroke-linecap: square"/>
   </g>
   <g id="line2d_13">
    <path d="M 300.534415 139.074921 
L 300.444723 130.215247 
L 280.952443 130.215247 
" clip-path="url(#p1fabd1aa7c)" style="fill: none; stroke: #646464; stroke-width: 0.45; stroke-linecap: square"/>
   </g>
   <g id="text_1">
    <text style="font-weight: 700; font-size: 7.79px; font-family: 'Arial'; fill: #1b1b1b" transform="translate(249.837293 268.855906) rotate(-315)">16,215</text>
    <text style="font-weight: 700; font-size: 7.79px; font-family: 'Arial'; fill: #1b1b1b" transform="translate(240.001304 268.606429) rotate(-315)">Questions</text>
   </g>
   <g id="text_2">
    <text style="font-size: 5.412px; font-family: 'Arial'; fill: #1b1b1b" transform="translate(220.338205 239.904021) rotate(-315)">9 question</text>
    <text style="font-size: 5.412px; font-family: 'Arial'; fill: #1b1b1b" transform="translate(221.25896 247.495642) rotate(-315)">types</text>
   </g>
   <g id="text_3">
    <text style="font-size: 4.592px; font-family: 'Arial'; fill: #1b1b1b" transform="translate(143.479832 287.813725) rotate(-347.689177)">Findings</text>
    <text style="font-size: 4.592px; font-family: 'Arial'; fill: #1b1b1b" transform="translate(138.001014 290.769658) rotate(-347.689177)">interpretation</text>
   </g>
   <g id="text_4">
    <text style="font-size: 4.592px; font-family: 'Arial'; fill: #1b1b1b" transform="translate(168.443309 227.802739) rotate(-324.782609)">Treatment</text>
    <text style="font-size: 4.592px; font-family: 'Arial'; fill: #1b1b1b" transform="translate(160.642198 227.195089) rotate(-324.782609)">recommendation</text>
   </g>
   <g id="text_5">
    <text style="font-size: 4.592px; font-family: 'Arial'; fill: #1b1b1b" transform="translate(202.17879 194.031187) rotate(-308.059204)">Evidence</text>
    <text style="font-size: 4.592px; font-family: 'Arial'; fill: #1b1b1b" transform="translate(198.241687 195.494899) rotate(-308.059204)">discussion</text>
   </g>
   <g id="text_6">
    <text style="font-size: 4.592px; font-family: 'Arial'; fill: #1b1b1b" transform="translate(230.529487 174.105768) rotate(-296.0037)">Next action</text>
    <text style="font-size: 4.592px; font-family: 'Arial'; fill: #1b1b1b" transform="translate(227.099067 176.202279) rotate(-296.0037)">suggestion</text>
   </g>
   <g id="text_7">
    <text style="font-size: 4.592px; font-family: 'Arial'; text-anchor: middle; fill: #1b1b1b" x="256.592035" y="176.148116" transform="rotate(-286.853839 256.592035 176.148116)">Uncertainty</text>
   </g>
   <g id="text_8">
    <text style="font-size: 4.592px; font-family: 'Arial'; fill: #1b1b1b" transform="translate(273.298611 162.873172) rotate(-280.573543)">Eligibility</text>
    <text style="font-size: 4.592px; font-family: 'Arial'; fill: #1b1b1b" transform="translate(268.702562 160.356075) rotate(-280.573543)">assessment</text>
   </g>
   <g id="text_9">
    <text style="font-size: 4.592px; font-family: 'Arial'; fill: #1b1b1b" transform="translate(286.170929 158.755594) rotate(-275.922294)">Agreement</text>
    <text style="font-size: 4.592px; font-family: 'Arial'; fill: #1b1b1b" transform="translate(282.228655 160.062981) rotate(-275.922294)">or support</text>
   </g>
   <g id="text_10">
    <text style="font-size: 4.592px; font-family: 'Arial'; fill: #1b1b1b" transform="translate(295.256468 157.347454) rotate(-272.744681)">Clarification</text>
    <text style="font-size: 4.592px; font-family: 'Arial'; fill: #1b1b1b" transform="translate(291.417442 160.849437) rotate(-272.744681)">question</text>
   </g>
   <g id="text_11">
    <text style="font-weight: 700; font-size: 7.79px; font-family: 'Arial'; fill: #1b1b1b" transform="translate(342.096379 281.722234) rotate(-45)">611</text>
    <text style="font-weight: 700; font-size: 7.79px; font-family: 'Arial'; fill: #1b1b1b" transform="translate(343.217537 290.187588) rotate(-45)">Cases</text>
   </g>
   <g id="text_12">
    <text style="font-weight: 700; font-size: 5.084px; font-family: 'Arial'; fill: #1b1b1b" transform="translate(322.943252 239.06855) rotate(-75.711948)">Head &amp; neck &amp;</text>
    <text style="font-weight: 700; font-size: 5.084px; font-family: 'Arial'; fill: #1b1b1b" transform="translate(328.62538 234.682844) rotate(-75.711948)">endocrine</text>
   </g>
   <g id="text_13">
    <text style="font-size: 4.592px; font-family: 'Arial'; fill: #1b1b1b" transform="translate(324.991302 179.886329) rotate(-80.720131)">Thyroid /</text>
    <text style="font-size: 4.592px; font-family: 'Arial'; fill: #1b1b1b" transform="translate(328.582388 183.061633) rotate(-80.720131)">parathyroid</text>
   </g>
   <g id="text_14">
    <text style="font-size: 4.592px; font-family: 'Arial'; text-anchor: middle; fill: #1b1b1b" x="365.129275" y="182.524065" transform="rotate(-66.432079 365.129275 182.524065)">Head &amp; neck</text>
   </g>
   <g id="text_15">
    <text style="font-size: 4.592px; font-family: 'Arial'; text-anchor: middle; fill: #1b1b1b" x="391.278399" y="197.382859" transform="rotate(-55.237316 391.278399 197.382859)">Genitourinary</text>
   </g>
   <g id="text_16">
    <text style="font-weight: 700; font-size: 5.084px; font-family: 'Arial'; text-anchor: middle; fill: #1b1b1b" x="378.721793" y="251.891224" transform="rotate(-43.821604 378.721793 251.891224)">Digestive</text>
   </g>
   <g id="text_17">
    <text style="font-size: 4.592px; font-family: 'Arial'; fill: #1b1b1b" transform="translate(397.615615 221.413304) rotate(-46.620295)">Hepatobiliary /</text>
    <text style="font-size: 4.592px; font-family: 'Arial'; fill: #1b1b1b" transform="translate(404.156445 220.397238) rotate(-46.620295)">pancreas</text>
   </g>
   <g id="text_18">
    <text style="font-size: 4.592px; font-family: 'Arial'; fill: #1b1b1b" transform="translate(406.58474 226.05246) rotate(-42.716858)">Colorectal /</text>
    <text style="font-size: 4.592px; font-family: 'Arial'; fill: #1b1b1b" transform="translate(414.642034 224.060452) rotate(-42.716858)">anal</text>
   </g>
   <g id="text_19">
    <text style="font-size: 4.592px; font-family: 'Arial'; fill: #1b1b1b" transform="translate(421.031741 241.573979) rotate(-34.247136)">Thoracic /</text>
    <text style="font-size: 4.592px; font-family: 'Arial'; fill: #1b1b1b" transform="translate(428.027699 241.652909) rotate(-34.247136)">lung</text>
   </g>
   <g id="text_20">
    <text style="font-weight: 700; font-size: 5.084px; font-family: 'Arial'; fill: #1b1b1b" transform="translate(387.308615 281.493184) rotate(-25.703764)">Neuro &amp;</text>
    <text style="font-weight: 700; font-size: 5.084px; font-family: 'Arial'; fill: #1b1b1b" transform="translate(387.059668 286.522834) rotate(-25.703764)">skull base</text>
   </g>
   <g id="text_21">
    <text style="font-size: 4.592px; font-family: 'Arial'; fill: #1b1b1b" transform="translate(434.754093 257.025554) rotate(-26.292962)">CNS /</text>
    <text style="font-size: 4.592px; font-family: 'Arial'; fill: #1b1b1b" transform="translate(430.02592 263.884493) rotate(-26.292962)">brain &amp; spine</text>
   </g>
   <g id="text_22">
    <text style="font-size: 5.6px; font-family: 'Arial'; text-anchor: middle; fill: #1b1b1b" x="449.84376" y="278.304425" transform="rotate(-17.528642 449.84376 278.304425)">Breast</text>
   </g>
   <g id="text_23">
    <text style="font-size: 4.592px; font-family: 'Arial'; text-anchor: middle; fill: #1b1b1b" x="453.86356" y="294.591149" transform="rotate(-11.194763 453.86356 294.591149)">Gynecologic</text>
   </g>
   <g id="text_24">
    <text style="font-weight: 700; font-size: 5.084px; font-family: 'Arial'; fill: #1b1b1b" transform="translate(398.259041 311.066315) rotate(-6.775777)">Skin &amp;</text>
    <text style="font-weight: 700; font-size: 5.084px; font-family: 'Arial'; fill: #1b1b1b" transform="translate(396.252023 315.759879) rotate(-6.775777)">sarcoma</text>
   </g>
   <g id="text_25">
    <text style="font-size: 4.592px; font-family: 'Arial'; text-anchor: middle; fill: #1b1b1b" x="456.422102" y="316.591484" transform="rotate(-2.94599 456.422102 316.591484)">Hematologic</text>
   </g>
   <g id="text_26">
    <text style="font-weight: 700; font-size: 7.79px; font-family: 'Arial'; fill: #1b1b1b" transform="translate(343.882413 362.901026) rotate(-315)">219</text>
    <text style="font-weight: 700; font-size: 7.79px; font-family: 'Arial'; fill: #1b1b1b" transform="translate(334.702264 363.307388) rotate(-315)">Videos</text>
   </g>
   <g id="text_27">
    <text style="font-size: 6.6px; font-family: 'Arial'; text-anchor: middle; fill: #1b1b1b" x="377.53413" y="398.490258" transform="rotate(-45 377.53413 398.490258)">187 hours  ·  4,977 slides</text>
   </g>
   <g id="text_28">
    <text style="font-size: 5.6px; font-family: 'Arial'; fill: #1b1b1b" transform="translate(380.004283 461.480354) rotate(-45)">median 7 slides per case (max 39)</text>
    <text style="font-size: 5.6px; font-family: 'Arial'; fill: #1b1b1b" transform="translate(387.472524 462.794202) rotate(-45)">median 28 utterances per case</text>
   </g>
   <g id="text_29">
    <text style="font-weight: 700; font-size: 7.79px; font-family: 'Arial'; fill: #1b1b1b" transform="translate(250.831492 368.130759) rotate(-45)">10</text>
    <text style="font-weight: 700; font-size: 7.79px; font-family: 'Arial'; fill: #1b1b1b" transform="translate(245.892867 382.782107) rotate(-45)">Specialist</text>
    <text style="font-weight: 700; font-size: 7.79px; font-family: 'Arial'; fill: #1b1b1b" transform="translate(256.961782 381.299703) rotate(-45)">roles</text>
   </g>
   <g id="text_30">
    <text style="font-weight: 700; font-size: 5.084px; font-family: 'Arial'; text-anchor: middle; fill: #1b1b1b" x="244.33162" y="410.306181" transform="rotate(-55.559667 244.33162 410.306181)">Treating</text>
   </g>
   <g id="text_31">
    <text style="font-size: 5.6px; font-family: 'Arial'; text-anchor: middle; fill: #1b1b1b" x="260.481428" y="471.721067" transform="rotate(-73.684551 260.481428 471.721067)">Surgeon</text>
   </g>
   <g id="text_32">
    <text style="font-size: 4.592px; font-family: 'Arial'; fill: #1b1b1b" transform="translate(183.092005 433.062025) rotate(-42.896392)">Medical</text>
    <text style="font-size: 4.592px; font-family: 'Arial'; fill: #1b1b1b" transform="translate(184.038336 437.646023) rotate(-42.896392)">oncologist</text>
   </g>
   <g id="text_33">
    <text style="font-size: 4.592px; font-family: 'Arial'; fill: #1b1b1b" transform="translate(153.259195 391.252693) rotate(-24.771508)">Radiation</text>
    <text style="font-size: 4.592px; font-family: 'Arial'; fill: #1b1b1b" transform="translate(154.357002 395.154002) rotate(-24.771508)">oncologist</text>
   </g>
   <g id="text_34">
    <text style="font-weight: 700; font-size: 5.084px; font-family: 'Arial'; text-anchor: middle; fill: #1b1b1b" x="201.119716" y="349.328279" transform="rotate(-13.679001 201.119716 349.328279)">Diagnostic</text>
   </g>
   <g id="text_35">
    <text style="font-size: 4.592px; font-family: 'Arial'; text-anchor: middle; fill: #1b1b1b" x="156.041225" y="371.808964" transform="rotate(-17.886216 156.041225 371.808964)">Radiologist</text>
   </g>
   <g id="text_36">
    <text style="font-size: 4.592px; font-family: 'Arial'; fill: #1b1b1b" transform="translate(141.897441 357.628127) rotate(-12.346901)">Molecular</text>
    <text style="font-size: 4.592px; font-family: 'Arial'; fill: #1b1b1b" transform="translate(141.627603 361.78427) rotate(-12.346901)">pathologist</text>
   </g>
   <g id="text_37">
    <text style="font-size: 4.592px; font-family: 'Arial'; text-anchor: middle; fill: #1b1b1b" x="149.95115" y="346.332558" transform="rotate(-8.139685 149.95115 346.332558)">Pathologist</text>
   </g>
   <g id="text_38">
    <text style="font-size: 5.6px; font-family: 'Arial'; text-anchor: middle; fill: #1b1b1b" x="148.599701" y="334.069959" transform="rotate(-3.446809 148.599701 334.069959)">Other</text>
   </g>
   <g id="text_39">
    <text style="font-size: 4.9px; font-family: 'Arial'; text-anchor: start; fill: #646464" x="519.471685" y="323.856572" transform="rotate(-0 519.471685 323.856572)">Unknown primary  3</text>
   </g>
   <g id="text_40">
    <text style="font-size: 4.9px; font-family: 'Arial'; text-anchor: start; fill: #646464" x="519.462908" y="310.587819" transform="rotate(-0 519.462908 310.587819)">Other  8</text>
   </g>
   <g id="text_41">
    <text style="font-size: 4.9px; font-family: 'Arial'; text-anchor: start; fill: #646464" x="519.453813" y="297.300307" transform="rotate(-0 519.453813 297.300307)">Neuroendocrine (site NOS)  5</text>
   </g>
   <g id="text_42">
    <text style="font-size: 4.9px; font-family: 'Arial'; text-anchor: start; fill: #646464" x="518.552151" y="284.008585" transform="rotate(-0 518.552151 284.008585)">Sarcoma (bone / soft tissue)  12</text>
   </g>
   <g id="text_43">
    <text style="font-size: 4.9px; font-family: 'Arial'; text-anchor: start; fill: #646464" x="517.749731" y="270.717246" transform="rotate(-0 517.749731 270.717246)">Skin / melanoma  16</text>
   </g>
   <g id="text_44">
    <text style="font-size: 4.9px; font-family: 'Arial'; text-anchor: start; fill: #646464" x="505.288503" y="251.970693" transform="rotate(-0 505.288503 251.970693)">Skull base  8</text>
   </g>
   <g id="text_45">
    <text style="font-size: 4.9px; font-family: 'Arial'; text-anchor: start; fill: #646464" x="476.66798" y="203.365226" transform="rotate(-0 476.66798 203.365226)">Peritoneum  4</text>
   </g>
   <g id="text_46">
    <text style="font-size: 4.9px; font-family: 'Arial'; text-anchor: start; fill: #646464" x="473.822359" y="190.104894" transform="rotate(-0 473.822359 190.104894)">Upper GI  14</text>
   </g>
   <g id="text_47">
    <text style="font-size: 4.9px; font-family: 'Arial'; text-anchor: end; fill: #646464" x="85.333739" y="326.250701" transform="rotate(-0 85.333739 326.250701)">Genetic counselor  62</text>
   </g>
   <g id="text_48">
    <text style="font-size: 4.9px; font-family: 'Arial'; text-anchor: end; fill: #646464" x="85.330034" y="312.990369" transform="rotate(-0 85.330034 312.990369)">Support  118</text>
   </g>
   <g id="text_49">
    <text style="font-size: 4.9px; font-family: 'Arial'; text-anchor: end; fill: #646464" x="85.328478" y="299.700178" transform="rotate(-0 85.328478 299.700178)">Clinical trial specialist  28</text>
   </g>
   <g id="text_50">
    <text style="font-size: 4.9px; font-family: 'Arial'; text-anchor: end; fill: #646464" x="85.327057" y="286.35869" transform="rotate(-0 85.327057 286.35869)">Nurse navigator  28</text>
   </g>
   <g id="text_51">
    <text style="font-size: 4.9px; font-family: 'Arial'; text-anchor: end; fill: #646464" x="276.522379" y="131.483122" transform="rotate(-0 276.522379 131.483122)">Clinical trial suggestion  209</text>
   </g>
  </g>
  <g id="text_52">
   <text style="font-weight: 700; font-size: 13px; font-family: 'Arial'; text-anchor: middle; fill: #1b1b1b" x="302.4" y="20.349994" transform="rotate(-0 302.4 20.349994)">OpenTumorBoard at a glance</text>
  </g>
  <g id="text_53">
   <text style="font-style: italic; font-size: 6.2px; font-family: 'Arial'; text-anchor: middle; fill: #5f5f5f" x="302.4" y="35.963006" transform="rotate(-0 302.4 35.963006)">each quadrant is one quarter of the wheel; only the outer ring is proportional, and only within its own quadrant</text>
  </g>
 </g>
 <defs>
  <clipPath id="p1fabd1aa7c">
   <rect x="15.331873" y="36.288" width="574.136255" height="556.416"/>
  </clipPath>
 </defs>
</svg>
